<?xml version="1.0" standalone="no"?>
<!DOCTYPE svg PUBLIC "-//W3C//DTD SVG 20010904//EN"
 "http://www.w3.org/TR/2001/REC-SVG-20010904/DTD/svg10.dtd">
<svg version="1.0" xmlns="http://www.w3.org/2000/svg"
 width="225.000000pt" height="225.000000pt" viewBox="0 0 225.000000 225.000000"
 preserveAspectRatio="xMidYMid meet">

<g transform="translate(0.000000,225.000000) scale(0.100000,-0.100000)"
fill="#000000" stroke="none">
<path d="M322 1234 c-19 -13 -22 -24 -20 -57 3 -44 1 -42 98 -87 8 -4 15 -13
15 -21 0 -10 -15 -14 -58 -14 -56 1 -58 0 -55 -25 3 -23 7 -25 63 -28 70 -3
106 12 119 51 13 37 -17 77 -75 97 -63 22 -59 45 9 45 50 -1 52 0 52 27 0 28
-1 28 -63 28 -41 0 -70 -5 -85 -16z"/>
<path d="M507 1243 c-4 -3 -7 -15 -7 -25 0 -14 8 -18 40 -18 l40 0 0 -100 0
-100 30 0 30 0 0 100 0 100 35 0 c31 0 35 3 35 25 0 25 0 25 -98 25 -54 0
-102 -3 -105 -7z"/>
<path d="M777 1208 c-8 -24 -29 -80 -46 -125 l-30 -83 33 0 c28 0 35 5 40 25
6 22 11 25 55 25 44 0 49 -3 55 -25 5 -21 12 -25 41 -25 l35 0 -36 98 c-20 53
-40 109 -46 125 -8 23 -16 27 -48 27 -36 0 -39 -3 -53 -42z m67 -52 c3 -13 9
-31 12 -40 5 -13 -1 -16 -26 -16 -25 0 -31 3 -26 16 3 9 9 27 12 40 3 13 10
24 14 24 4 0 11 -11 14 -24z"/>
<path d="M1000 1125 l0 -125 30 0 c29 0 29 0 32 64 l3 65 53 -65 c39 -47 59
-64 77 -64 44 0 29 37 -61 146 -66 80 -91 104 -110 104 l-24 0 0 -125z"/>
<path d="M1161 1198 c23 -29 46 -57 51 -62 4 -6 8 18 8 52 l0 62 -51 0 -51 0
43 -52z"/>
<path d="M1280 1125 l0 -125 90 0 c89 0 90 0 90 25 0 24 -3 25 -55 25 l-55 0
0 100 0 100 -35 0 -35 0 0 -125z"/>
<path d="M1500 1125 l0 -125 90 0 c89 0 90 0 90 25 0 24 -3 25 -60 25 -57 0
-60 1 -60 25 0 24 3 25 55 25 52 0 55 1 55 24 0 23 -4 25 -52 28 -46 3 -53 6
-56 26 -3 21 0 22 57 22 58 0 61 1 61 25 0 25 -1 25 -90 25 l-90 0 0 -125z"/>
<path d="M1736 1203 c15 -27 36 -61 46 -78 11 -18 18 -49 18 -77 0 -47 1 -48
30 -48 29 0 30 2 30 43 0 32 11 61 45 119 25 43 45 80 45 83 0 3 -16 5 -35 5
-32 0 -37 -4 -57 -45 -12 -25 -25 -45 -28 -45 -3 0 -16 20 -28 45 -20 41 -25
45 -58 45 l-36 0 28 -47z"/>
<path d="M1916 1032 c-2 -4 6 -8 19 -8 13 0 21 4 19 8 -3 4 -11 8 -19 8 -8 0
-16 -4 -19 -8z"/>
</g>
</svg>
